# MagicaVoxel @ Ephtracy

# group
o 

# material
mtllib Pillar_Top.mtl
usemtl palette

# normals
vn -1 0 0
vn 1 0 0
vn 0 0 1
vn 0 0 -1
vn 0 -1 0
vn 0 1 0

# texcoords
vt 0.0332031 0.5
vt 0.0527344 0.5

# verts
v -3.2 0 -1.6
v -3.2 0 -1.7
v -3.2 0.1 -1.5
v -3.2 0.1 -1.6
v -3.2 0.1 -1.7
v -3.2 0.2 -1.4
v -3.2 0.2 -1.5
v -3.2 0.2 -1.6
v -3.2 1.4 -1.3
v -3.2 1.4 -1.4
v -3.2 1.4 -1.5
v -3.2 1.8 -1.2
v -3.2 1.8 -1.3
v -3.2 1.8 -1.4
v -3.2 2.1 -1.1
v -3.2 2.1 -1.2
v -3.2 2.1 -1.3
v -3.2 2.3 -1
v -3.2 2.3 -1.1
v -3.2 2.3 -1.2
v -3.2 2.4 -0.9
v -3.2 2.4 -1
v -3.2 2.4 -1.1
v -3.2 2.6 -0.8
v -3.2 2.6 -0.9
v -3.2 2.6 -1
v -3.2 2.7 -0.7
v -3.2 2.7 -0.8
v -3.2 2.7 -0.9
v -3.2 2.8 -0.6
v -3.2 2.8 -0.7
v -3.2 2.8 -0.8
v -3.2 2.9 -0.5
v -3.2 2.9 -0.6
v -3.2 2.9 -0.7
v -3.2 3 -0.4
v -3.2 3 -0.5
v -3.2 3 -0.6
v -3.2 3.1 -0.3
v -3.2 3.1 -0.4
v -3.2 3.1 -0.5
v -3.2 3.2 -0.2
v -3.2 3.2 -0.3
v -3.2 3.2 -0.4
v -3.2 3.3 -2.38419e-07
v -3.2 3.3 -0.2
v -3.2 3.3 -0.3
v -3.2 3.4 0.0999999
v -3.2 3.4 -2.38419e-07
v -3.2 3.4 -0.2
v -3.2 3.5 0.3
v -3.2 3.5 0.0999999
v -3.2 3.5 -2.38419e-07
v -3.2 3.6 0.6
v -3.2 3.6 0.3
v -3.2 3.6 0.0999999
v -3.2 3.7 2.1
v -3.2 3.7 0.6
v -3.2 3.7 0.3
v -3.2 3.8 2.2
v -3.2 3.8 2.1
v -3.2 3.8 0.6
v -3.2 3.9 2.3
v -3.2 3.9 2.2
v -3.2 3.9 2.1
v -3.2 4 2.3
v -3.2 4 2.2
v -3.2 4 -1.7
v -3.1 0 -1.5
v -3.1 0 -1.6
v -3.1 0.1 -1.4
v -3.1 0.1 -1.5
v -3.1 0.1 -1.6
v -3.1 0.2 -1.3
v -3.1 0.2 -1.4
v -3.1 0.2 -1.5
v -3.1 1.4 -1.2
v -3.1 1.4 -1.3
v -3.1 1.4 -1.4
v -3.1 1.8 -1.1
v -3.1 1.8 -1.2
v -3.1 1.8 -1.3
v -3.1 2.1 -1
v -3.1 2.1 -1.1
v -3.1 2.1 -1.2
v -3.1 2.3 -0.9
v -3.1 2.3 -1
v -3.1 2.3 -1.1
v -3.1 2.4 -0.8
v -3.1 2.4 -0.9
v -3.1 2.4 -1
v -3.1 2.6 -0.7
v -3.1 2.6 -0.8
v -3.1 2.6 -0.9
v -3.1 2.7 -0.6
v -3.1 2.7 -0.7
v -3.1 2.7 -0.8
v -3.1 2.8 -0.5
v -3.1 2.8 -0.6
v -3.1 2.8 -0.7
v -3.1 2.9 -0.4
v -3.1 2.9 -0.5
v -3.1 2.9 -0.6
v -3.1 3 -0.3
v -3.1 3 -0.4
v -3.1 3 -0.5
v -3.1 3.1 -0.2
v -3.1 3.1 -0.3
v -3.1 3.1 -0.4
v -3.1 3.2 -2.38419e-07
v -3.1 3.2 -0.2
v -3.1 3.2 -0.3
v -3.1 3.3 0.0999999
v -3.1 3.3 -2.38419e-07
v -3.1 3.3 -0.2
v -3.1 3.4 0.3
v -3.1 3.4 0.0999999
v -3.1 3.4 -2.38419e-07
v -3.1 3.5 0.6
v -3.1 3.5 0.3
v -3.1 3.5 0.0999999
v -3.1 3.6 2.1
v -3.1 3.6 0.6
v -3.1 3.6 0.3
v -3.1 3.7 2.2
v -3.1 3.7 2.1
v -3.1 3.7 0.6
v -3.1 3.8 2.3
v -3.1 3.8 2.2
v -3.1 3.8 2.1
v -3.1 3.9 2.3
v -3.1 3.9 2.2
v 2.1 0 -1.5
v 2.1 0 -1.6
v 2.1 0.1 -1.4
v 2.1 0.1 -1.5
v 2.1 0.1 -1.6
v 2.1 0.2 -1.3
v 2.1 0.2 -1.4
v 2.1 0.2 -1.5
v 2.1 1.4 -1.2
v 2.1 1.4 -1.3
v 2.1 1.4 -1.4
v 2.1 1.8 -1.1
v 2.1 1.8 -1.2
v 2.1 1.8 -1.3
v 2.1 2.1 -1
v 2.1 2.1 -1.1
v 2.1 2.1 -1.2
v 2.1 2.3 -0.9
v 2.1 2.3 -1
v 2.1 2.3 -1.1
v 2.1 2.4 -0.8
v 2.1 2.4 -0.9
v 2.1 2.4 -1
v 2.1 2.6 -0.7
v 2.1 2.6 -0.8
v 2.1 2.6 -0.9
v 2.1 2.7 -0.6
v 2.1 2.7 -0.7
v 2.1 2.7 -0.8
v 2.1 2.8 -0.5
v 2.1 2.8 -0.6
v 2.1 2.8 -0.7
v 2.1 2.9 -0.4
v 2.1 2.9 -0.5
v 2.1 2.9 -0.6
v 2.1 3 -0.3
v 2.1 3 -0.4
v 2.1 3 -0.5
v 2.1 3.1 -0.2
v 2.1 3.1 -0.3
v 2.1 3.1 -0.4
v 2.1 3.2 -2.38419e-07
v 2.1 3.2 -0.2
v 2.1 3.2 -0.3
v 2.1 3.3 0.0999999
v 2.1 3.3 -2.38419e-07
v 2.1 3.3 -0.2
v 2.1 3.4 0.3
v 2.1 3.4 0.0999999
v 2.1 3.4 -2.38419e-07
v 2.1 3.5 0.6
v 2.1 3.5 0.3
v 2.1 3.5 0.0999999
v 2.1 3.6 2.1
v 2.1 3.6 0.6
v 2.1 3.6 0.3
v 2.1 3.7 2.2
v 2.1 3.7 2.1
v 2.1 3.7 0.6
v 2.1 3.8 2.3
v 2.1 3.8 2.2
v 2.1 3.8 2.1
v 2.1 3.9 2.3
v 2.1 3.9 2.2
v 2.2 0 -1.6
v 2.2 0 -1.7
v 2.2 0.1 -1.5
v 2.2 0.1 -1.6
v 2.2 0.1 -1.7
v 2.2 0.2 -1.4
v 2.2 0.2 -1.5
v 2.2 0.2 -1.6
v 2.2 1.4 -1.3
v 2.2 1.4 -1.4
v 2.2 1.4 -1.5
v 2.2 1.8 -1.2
v 2.2 1.8 -1.3
v 2.2 1.8 -1.4
v 2.2 2.1 -1.1
v 2.2 2.1 -1.2
v 2.2 2.1 -1.3
v 2.2 2.3 -1
v 2.2 2.3 -1.1
v 2.2 2.3 -1.2
v 2.2 2.4 -0.9
v 2.2 2.4 -1
v 2.2 2.4 -1.1
v 2.2 2.6 -0.8
v 2.2 2.6 -0.9
v 2.2 2.6 -1
v 2.2 2.7 -0.7
v 2.2 2.7 -0.8
v 2.2 2.7 -0.9
v 2.2 2.8 -0.6
v 2.2 2.8 -0.7
v 2.2 2.8 -0.8
v 2.2 2.9 -0.5
v 2.2 2.9 -0.6
v 2.2 2.9 -0.7
v 2.2 3 -0.4
v 2.2 3 -0.5
v 2.2 3 -0.6
v 2.2 3.1 -0.3
v 2.2 3.1 -0.4
v 2.2 3.1 -0.5
v 2.2 3.2 -0.2
v 2.2 3.2 -0.3
v 2.2 3.2 -0.4
v 2.2 3.3 -2.38419e-07
v 2.2 3.3 -0.2
v 2.2 3.3 -0.3
v 2.2 3.4 0.0999999
v 2.2 3.4 -2.38419e-07
v 2.2 3.4 -0.2
v 2.2 3.5 0.3
v 2.2 3.5 0.0999999
v 2.2 3.5 -2.38419e-07
v 2.2 3.6 0.6
v 2.2 3.6 0.3
v 2.2 3.6 0.0999999
v 2.2 3.7 2.1
v 2.2 3.7 0.6
v 2.2 3.7 0.3
v 2.2 3.8 2.2
v 2.2 3.8 2.1
v 2.2 3.8 0.6
v 2.2 3.9 2.3
v 2.2 3.9 2.2
v 2.2 3.9 2.1
v 2.2 4 2.3
v 2.2 4 2.2
v 2.2 4 -1.7
v -3.2 3.9 2.3
v -3.2 4 2.3
v -3.1 3.8 2.3
v -3.1 3.9 2.3
v 2.1 3.8 2.3
v 2.1 3.9 2.3
v 2.2 3.9 2.3
v 2.2 4 2.3
v -3.2 3.8 2.2
v -3.2 3.9 2.2
v -3.1 3.7 2.2
v -3.1 3.8 2.2
v -3.1 3.9 2.2
v 2.1 3.7 2.2
v 2.1 3.8 2.2
v 2.1 3.9 2.2
v 2.2 3.8 2.2
v 2.2 3.9 2.2
v -3.2 3.7 2.1
v -3.2 3.8 2.1
v -3.1 3.6 2.1
v -3.1 3.7 2.1
v -3.1 3.8 2.1
v 2.1 3.6 2.1
v 2.1 3.7 2.1
v 2.1 3.8 2.1
v 2.2 3.7 2.1
v 2.2 3.8 2.1
v -3.2 3.6 0.6
v -3.2 3.7 0.6
v -3.1 3.5 0.6
v -3.1 3.6 0.6
v -3.1 3.7 0.6
v 2.1 3.5 0.6
v 2.1 3.6 0.6
v 2.1 3.7 0.6
v 2.2 3.6 0.6
v 2.2 3.7 0.6
v -3.2 3.5 0.3
v -3.2 3.6 0.3
v -3.1 3.4 0.3
v -3.1 3.5 0.3
v -3.1 3.6 0.3
v 2.1 3.4 0.3
v 2.1 3.5 0.3
v 2.1 3.6 0.3
v 2.2 3.5 0.3
v 2.2 3.6 0.3
v -3.2 3.4 0.0999999
v -3.2 3.5 0.0999999
v -3.1 3.3 0.0999999
v -3.1 3.4 0.0999999
v -3.1 3.5 0.0999999
v 2.1 3.3 0.0999999
v 2.1 3.4 0.0999999
v 2.1 3.5 0.0999999
v 2.2 3.4 0.0999999
v 2.2 3.5 0.0999999
v -3.2 3.3 -2.38419e-07
v -3.2 3.4 -2.38419e-07
v -3.1 3.2 -2.38419e-07
v -3.1 3.3 -2.38419e-07
v -3.1 3.4 -2.38419e-07
v 2.1 3.2 -2.38419e-07
v 2.1 3.3 -2.38419e-07
v 2.1 3.4 -2.38419e-07
v 2.2 3.3 -2.38419e-07
v 2.2 3.4 -2.38419e-07
v -3.2 3.2 -0.2
v -3.2 3.3 -0.2
v -3.1 3.1 -0.2
v -3.1 3.2 -0.2
v -3.1 3.3 -0.2
v 2.1 3.1 -0.2
v 2.1 3.2 -0.2
v 2.1 3.3 -0.2
v 2.2 3.2 -0.2
v 2.2 3.3 -0.2
v -3.2 3.1 -0.3
v -3.2 3.2 -0.3
v -3.1 3 -0.3
v -3.1 3.1 -0.3
v -3.1 3.2 -0.3
v 2.1 3 -0.3
v 2.1 3.1 -0.3
v 2.1 3.2 -0.3
v 2.2 3.1 -0.3
v 2.2 3.2 -0.3
v -3.2 3 -0.4
v -3.2 3.1 -0.4
v -3.1 2.9 -0.4
v -3.1 3 -0.4
v -3.1 3.1 -0.4
v 2.1 2.9 -0.4
v 2.1 3 -0.4
v 2.1 3.1 -0.4
v 2.2 3 -0.4
v 2.2 3.1 -0.4
v -3.2 2.9 -0.5
v -3.2 3 -0.5
v -3.1 2.8 -0.5
v -3.1 2.9 -0.5
v -3.1 3 -0.5
v 2.1 2.8 -0.5
v 2.1 2.9 -0.5
v 2.1 3 -0.5
v 2.2 2.9 -0.5
v 2.2 3 -0.5
v -3.2 2.8 -0.6
v -3.2 2.9 -0.6
v -3.1 2.7 -0.6
v -3.1 2.8 -0.6
v -3.1 2.9 -0.6
v 2.1 2.7 -0.6
v 2.1 2.8 -0.6
v 2.1 2.9 -0.6
v 2.2 2.8 -0.6
v 2.2 2.9 -0.6
v -3.2 2.7 -0.7
v -3.2 2.8 -0.7
v -3.1 2.6 -0.7
v -3.1 2.7 -0.7
v -3.1 2.8 -0.7
v 2.1 2.6 -0.7
v 2.1 2.7 -0.7
v 2.1 2.8 -0.7
v 2.2 2.7 -0.7
v 2.2 2.8 -0.7
v -3.2 2.6 -0.8
v -3.2 2.7 -0.8
v -3.1 2.4 -0.8
v -3.1 2.6 -0.8
v -3.1 2.7 -0.8
v 2.1 2.4 -0.8
v 2.1 2.6 -0.8
v 2.1 2.7 -0.8
v 2.2 2.6 -0.8
v 2.2 2.7 -0.8
v -3.2 2.4 -0.9
v -3.2 2.6 -0.9
v -3.1 2.3 -0.9
v -3.1 2.4 -0.9
v -3.1 2.6 -0.9
v 2.1 2.3 -0.9
v 2.1 2.4 -0.9
v 2.1 2.6 -0.9
v 2.2 2.4 -0.9
v 2.2 2.6 -0.9
v -3.2 2.3 -1
v -3.2 2.4 -1
v -3.1 2.1 -1
v -3.1 2.3 -1
v -3.1 2.4 -1
v 2.1 2.1 -1
v 2.1 2.3 -1
v 2.1 2.4 -1
v 2.2 2.3 -1
v 2.2 2.4 -1
v -3.2 2.1 -1.1
v -3.2 2.3 -1.1
v -3.1 1.8 -1.1
v -3.1 2.1 -1.1
v -3.1 2.3 -1.1
v 2.1 1.8 -1.1
v 2.1 2.1 -1.1
v 2.1 2.3 -1.1
v 2.2 2.1 -1.1
v 2.2 2.3 -1.1
v -3.2 1.8 -1.2
v -3.2 2.1 -1.2
v -3.1 1.4 -1.2
v -3.1 1.8 -1.2
v -3.1 2.1 -1.2
v 2.1 1.4 -1.2
v 2.1 1.8 -1.2
v 2.1 2.1 -1.2
v 2.2 1.8 -1.2
v 2.2 2.1 -1.2
v -3.2 1.4 -1.3
v -3.2 1.8 -1.3
v -3.1 0.2 -1.3
v -3.1 1.4 -1.3
v -3.1 1.8 -1.3
v 2.1 0.2 -1.3
v 2.1 1.4 -1.3
v 2.1 1.8 -1.3
v 2.2 1.4 -1.3
v 2.2 1.8 -1.3
v -3.2 0.2 -1.4
v -3.2 1.4 -1.4
v -3.1 0.1 -1.4
v -3.1 0.2 -1.4
v -3.1 1.4 -1.4
v 2.1 0.1 -1.4
v 2.1 0.2 -1.4
v 2.1 1.4 -1.4
v 2.2 0.2 -1.4
v 2.2 1.4 -1.4
v -3.2 0.1 -1.5
v -3.2 0.2 -1.5
v -3.1 0 -1.5
v -3.1 0.1 -1.5
v -3.1 0.2 -1.5
v 2.1 0 -1.5
v 2.1 0.1 -1.5
v 2.1 0.2 -1.5
v 2.2 0.1 -1.5
v 2.2 0.2 -1.5
v -3.2 0 -1.6
v -3.2 0.1 -1.6
v -3.1 0 -1.6
v -3.1 0.1 -1.6
v 2.1 0 -1.6
v 2.1 0.1 -1.6
v 2.2 0 -1.6
v 2.2 0.1 -1.6
v -3.2 0 -1.7
v -3.2 0.1 -1.7
v -3.2 4 -1.7
v 2.2 0 -1.7
v 2.2 0.1 -1.7
v 2.2 4 -1.7
v -3.1 0 -1.5
v 2.1 0 -1.5
v -3.2 0 -1.6
v -3.1 0 -1.6
v 2.1 0 -1.6
v 2.2 0 -1.6
v -3.2 0 -1.7
v 2.2 0 -1.7
v -3.1 0.1 -1.4
v 2.1 0.1 -1.4
v -3.2 0.1 -1.5
v -3.1 0.1 -1.5
v 2.1 0.1 -1.5
v 2.2 0.1 -1.5
v -3.2 0.1 -1.6
v -3.1 0.1 -1.6
v 2.1 0.1 -1.6
v 2.2 0.1 -1.6
v -3.1 0.2 -1.3
v 2.1 0.2 -1.3
v -3.2 0.2 -1.4
v -3.1 0.2 -1.4
v 2.1 0.2 -1.4
v 2.2 0.2 -1.4
v -3.2 0.2 -1.5
v -3.1 0.2 -1.5
v 2.1 0.2 -1.5
v 2.2 0.2 -1.5
v -3.1 1.4 -1.2
v 2.1 1.4 -1.2
v -3.2 1.4 -1.3
v -3.1 1.4 -1.3
v 2.1 1.4 -1.3
v 2.2 1.4 -1.3
v -3.2 1.4 -1.4
v -3.1 1.4 -1.4
v 2.1 1.4 -1.4
v 2.2 1.4 -1.4
v -3.1 1.8 -1.1
v 2.1 1.8 -1.1
v -3.2 1.8 -1.2
v -3.1 1.8 -1.2
v 2.1 1.8 -1.2
v 2.2 1.8 -1.2
v -3.2 1.8 -1.3
v -3.1 1.8 -1.3
v 2.1 1.8 -1.3
v 2.2 1.8 -1.3
v -3.1 2.1 -1
v 2.1 2.1 -1
v -3.2 2.1 -1.1
v -3.1 2.1 -1.1
v 2.1 2.1 -1.1
v 2.2 2.1 -1.1
v -3.2 2.1 -1.2
v -3.1 2.1 -1.2
v 2.1 2.1 -1.2
v 2.2 2.1 -1.2
v -3.1 2.3 -0.9
v 2.1 2.3 -0.9
v -3.2 2.3 -1
v -3.1 2.3 -1
v 2.1 2.3 -1
v 2.2 2.3 -1
v -3.2 2.3 -1.1
v -3.1 2.3 -1.1
v 2.1 2.3 -1.1
v 2.2 2.3 -1.1
v -3.1 2.4 -0.8
v 2.1 2.4 -0.8
v -3.2 2.4 -0.9
v -3.1 2.4 -0.9
v 2.1 2.4 -0.9
v 2.2 2.4 -0.9
v -3.2 2.4 -1
v -3.1 2.4 -1
v 2.1 2.4 -1
v 2.2 2.4 -1
v -3.1 2.6 -0.7
v 2.1 2.6 -0.7
v -3.2 2.6 -0.8
v -3.1 2.6 -0.8
v 2.1 2.6 -0.8
v 2.2 2.6 -0.8
v -3.2 2.6 -0.9
v -3.1 2.6 -0.9
v 2.1 2.6 -0.9
v 2.2 2.6 -0.9
v -3.1 2.7 -0.6
v 2.1 2.7 -0.6
v -3.2 2.7 -0.7
v -3.1 2.7 -0.7
v 2.1 2.7 -0.7
v 2.2 2.7 -0.7
v -3.2 2.7 -0.8
v -3.1 2.7 -0.8
v 2.1 2.7 -0.8
v 2.2 2.7 -0.8
v -3.1 2.8 -0.5
v 2.1 2.8 -0.5
v -3.2 2.8 -0.6
v -3.1 2.8 -0.6
v 2.1 2.8 -0.6
v 2.2 2.8 -0.6
v -3.2 2.8 -0.7
v -3.1 2.8 -0.7
v 2.1 2.8 -0.7
v 2.2 2.8 -0.7
v -3.1 2.9 -0.4
v 2.1 2.9 -0.4
v -3.2 2.9 -0.5
v -3.1 2.9 -0.5
v 2.1 2.9 -0.5
v 2.2 2.9 -0.5
v -3.2 2.9 -0.6
v -3.1 2.9 -0.6
v 2.1 2.9 -0.6
v 2.2 2.9 -0.6
v -3.1 3 -0.3
v 2.1 3 -0.3
v -3.2 3 -0.4
v -3.1 3 -0.4
v 2.1 3 -0.4
v 2.2 3 -0.4
v -3.2 3 -0.5
v -3.1 3 -0.5
v 2.1 3 -0.5
v 2.2 3 -0.5
v -3.1 3.1 -0.2
v 2.1 3.1 -0.2
v -3.2 3.1 -0.3
v -3.1 3.1 -0.3
v 2.1 3.1 -0.3
v 2.2 3.1 -0.3
v -3.2 3.1 -0.4
v -3.1 3.1 -0.4
v 2.1 3.1 -0.4
v 2.2 3.1 -0.4
v -3.1 3.2 -2.38419e-07
v 2.1 3.2 -2.38419e-07
v -3.2 3.2 -0.2
v -3.1 3.2 -0.2
v 2.1 3.2 -0.2
v 2.2 3.2 -0.2
v -3.2 3.2 -0.3
v -3.1 3.2 -0.3
v 2.1 3.2 -0.3
v 2.2 3.2 -0.3
v -3.1 3.3 0.0999999
v 2.1 3.3 0.0999999
v -3.2 3.3 -2.38419e-07
v -3.1 3.3 -2.38419e-07
v 2.1 3.3 -2.38419e-07
v 2.2 3.3 -2.38419e-07
v -3.2 3.3 -0.2
v -3.1 3.3 -0.2
v 2.1 3.3 -0.2
v 2.2 3.3 -0.2
v -3.1 3.4 0.3
v 2.1 3.4 0.3
v -3.2 3.4 0.0999999
v -3.1 3.4 0.0999999
v 2.1 3.4 0.0999999
v 2.2 3.4 0.0999999
v -3.2 3.4 -2.38419e-07
v -3.1 3.4 -2.38419e-07
v 2.1 3.4 -2.38419e-07
v 2.2 3.4 -2.38419e-07
v -3.1 3.5 0.6
v 2.1 3.5 0.6
v -3.2 3.5 0.3
v -3.1 3.5 0.3
v 2.1 3.5 0.3
v 2.2 3.5 0.3
v -3.2 3.5 0.0999999
v -3.1 3.5 0.0999999
v 2.1 3.5 0.0999999
v 2.2 3.5 0.0999999
v -3.1 3.6 2.1
v 2.1 3.6 2.1
v -3.2 3.6 0.6
v -3.1 3.6 0.6
v 2.1 3.6 0.6
v 2.2 3.6 0.6
v -3.2 3.6 0.3
v -3.1 3.6 0.3
v 2.1 3.6 0.3
v 2.2 3.6 0.3
v -3.1 3.7 2.2
v 2.1 3.7 2.2
v -3.2 3.7 2.1
v -3.1 3.7 2.1
v 2.1 3.7 2.1
v 2.2 3.7 2.1
v -3.2 3.7 0.6
v -3.1 3.7 0.6
v 2.1 3.7 0.6
v 2.2 3.7 0.6
v -3.1 3.8 2.3
v 2.1 3.8 2.3
v -3.2 3.8 2.2
v -3.1 3.8 2.2
v 2.1 3.8 2.2
v 2.2 3.8 2.2
v -3.2 3.8 2.1
v -3.1 3.8 2.1
v 2.1 3.8 2.1
v 2.2 3.8 2.1
v -3.2 3.9 2.3
v -3.1 3.9 2.3
v 2.1 3.9 2.3
v 2.2 3.9 2.3
v -3.2 3.9 2.2
v -3.1 3.9 2.2
v 2.1 3.9 2.2
v 2.2 3.9 2.2
v -3.2 4 2.3
v 2.2 4 2.3
v -3.2 4 2.2
v 2.2 4 2.2
v -3.2 4 -1.7
v 2.2 4 -1.7

# faces
f 4/1/1 2/1/1 1/1/1
f 5/1/1 2/1/1 4/1/1
f 7/1/1 4/1/1 3/1/1
f 8/2/1 5/2/1 4/2/1
f 8/1/1 4/1/1 7/1/1
f 10/1/1 7/1/1 6/1/1
f 11/2/1 8/2/1 7/2/1
f 11/1/1 7/1/1 10/1/1
f 13/1/1 10/1/1 9/1/1
f 14/2/1 11/2/1 10/2/1
f 14/1/1 10/1/1 13/1/1
f 16/1/1 13/1/1 12/1/1
f 17/2/1 14/2/1 13/2/1
f 17/1/1 13/1/1 16/1/1
f 19/1/1 16/1/1 15/1/1
f 20/2/1 17/2/1 16/2/1
f 20/1/1 16/1/1 19/1/1
f 22/1/1 19/1/1 18/1/1
f 23/2/1 20/2/1 19/2/1
f 23/1/1 19/1/1 22/1/1
f 25/1/1 22/1/1 21/1/1
f 26/2/1 23/2/1 22/2/1
f 26/1/1 22/1/1 25/1/1
f 28/1/1 25/1/1 24/1/1
f 29/2/1 26/2/1 25/2/1
f 29/1/1 25/1/1 28/1/1
f 31/1/1 28/1/1 27/1/1
f 32/2/1 29/2/1 28/2/1
f 32/1/1 28/1/1 31/1/1
f 34/1/1 31/1/1 30/1/1
f 35/2/1 32/2/1 31/2/1
f 35/1/1 31/1/1 34/1/1
f 37/1/1 34/1/1 33/1/1
f 38/2/1 35/2/1 34/2/1
f 38/1/1 34/1/1 37/1/1
f 40/1/1 37/1/1 36/1/1
f 41/2/1 38/2/1 37/2/1
f 41/1/1 37/1/1 40/1/1
f 43/1/1 40/1/1 39/1/1
f 44/2/1 41/2/1 40/2/1
f 44/1/1 40/1/1 43/1/1
f 46/1/1 43/1/1 42/1/1
f 47/2/1 44/2/1 43/2/1
f 47/1/1 43/1/1 46/1/1
f 49/1/1 46/1/1 45/1/1
f 50/2/1 47/2/1 46/2/1
f 50/1/1 46/1/1 49/1/1
f 52/1/1 49/1/1 48/1/1
f 53/2/1 50/2/1 49/2/1
f 53/1/1 49/1/1 52/1/1
f 55/1/1 52/1/1 51/1/1
f 56/2/1 53/2/1 52/2/1
f 56/1/1 52/1/1 55/1/1
f 58/1/1 55/1/1 54/1/1
f 59/2/1 56/2/1 55/2/1
f 59/1/1 55/1/1 58/1/1
f 61/1/1 58/1/1 57/1/1
f 62/2/1 59/2/1 58/2/1
f 62/1/1 58/1/1 61/1/1
f 64/1/1 61/1/1 60/1/1
f 65/2/1 62/2/1 61/2/1
f 65/1/1 61/1/1 64/1/1
f 66/1/1 64/1/1 63/1/1
f 67/2/1 65/2/1 64/2/1
f 67/1/1 64/1/1 66/1/1
f 68/2/1 5/2/1 8/2/1
f 68/2/1 65/2/1 67/2/1
f 68/2/1 8/2/1 11/2/1
f 68/2/1 11/2/1 14/2/1
f 68/2/1 14/2/1 17/2/1
f 68/2/1 62/2/1 65/2/1
f 68/2/1 17/2/1 20/2/1
f 68/2/1 59/2/1 62/2/1
f 68/2/1 20/2/1 23/2/1
f 68/2/1 56/2/1 59/2/1
f 68/2/1 23/2/1 26/2/1
f 68/2/1 53/2/1 56/2/1
f 68/2/1 26/2/1 29/2/1
f 68/2/1 50/2/1 53/2/1
f 68/2/1 29/2/1 32/2/1
f 68/2/1 47/2/1 50/2/1
f 68/2/1 32/2/1 35/2/1
f 68/2/1 44/2/1 47/2/1
f 68/2/1 35/2/1 38/2/1
f 68/2/1 41/2/1 44/2/1
f 68/2/1 38/2/1 41/2/1
f 72/2/1 70/2/1 69/2/1
f 73/2/1 70/2/1 72/2/1
f 75/2/1 72/2/1 71/2/1
f 76/2/1 72/2/1 75/2/1
f 78/2/1 75/2/1 74/2/1
f 79/2/1 75/2/1 78/2/1
f 81/2/1 78/2/1 77/2/1
f 82/2/1 78/2/1 81/2/1
f 84/2/1 81/2/1 80/2/1
f 85/2/1 81/2/1 84/2/1
f 87/2/1 84/2/1 83/2/1
f 88/2/1 84/2/1 87/2/1
f 90/2/1 87/2/1 86/2/1
f 91/2/1 87/2/1 90/2/1
f 93/2/1 90/2/1 89/2/1
f 94/2/1 90/2/1 93/2/1
f 96/2/1 93/2/1 92/2/1
f 97/2/1 93/2/1 96/2/1
f 99/2/1 96/2/1 95/2/1
f 100/2/1 96/2/1 99/2/1
f 102/2/1 99/2/1 98/2/1
f 103/2/1 99/2/1 102/2/1
f 105/2/1 102/2/1 101/2/1
f 106/2/1 102/2/1 105/2/1
f 108/2/1 105/2/1 104/2/1
f 109/2/1 105/2/1 108/2/1
f 111/2/1 108/2/1 107/2/1
f 112/2/1 108/2/1 111/2/1
f 114/2/1 111/2/1 110/2/1
f 115/2/1 111/2/1 114/2/1
f 117/2/1 114/2/1 113/2/1
f 118/2/1 114/2/1 117/2/1
f 120/2/1 117/2/1 116/2/1
f 121/2/1 117/2/1 120/2/1
f 123/2/1 120/2/1 119/2/1
f 124/2/1 120/2/1 123/2/1
f 126/2/1 123/2/1 122/2/1
f 127/2/1 123/2/1 126/2/1
f 129/2/1 126/2/1 125/2/1
f 130/2/1 126/2/1 129/2/1
f 131/2/1 129/2/1 128/2/1
f 132/2/1 129/2/1 131/2/1
f 133/2/2 134/2/2 136/2/2
f 136/2/2 134/2/2 137/2/2
f 135/2/2 136/2/2 139/2/2
f 139/2/2 136/2/2 140/2/2
f 138/2/2 139/2/2 142/2/2
f 142/2/2 139/2/2 143/2/2
f 141/2/2 142/2/2 145/2/2
f 145/2/2 142/2/2 146/2/2
f 144/2/2 145/2/2 148/2/2
f 148/2/2 145/2/2 149/2/2
f 147/2/2 148/2/2 151/2/2
f 151/2/2 148/2/2 152/2/2
f 150/2/2 151/2/2 154/2/2
f 154/2/2 151/2/2 155/2/2
f 153/2/2 154/2/2 157/2/2
f 157/2/2 154/2/2 158/2/2
f 156/2/2 157/2/2 160/2/2
f 160/2/2 157/2/2 161/2/2
f 159/2/2 160/2/2 163/2/2
f 163/2/2 160/2/2 164/2/2
f 162/2/2 163/2/2 166/2/2
f 166/2/2 163/2/2 167/2/2
f 165/2/2 166/2/2 169/2/2
f 169/2/2 166/2/2 170/2/2
f 168/2/2 169/2/2 172/2/2
f 172/2/2 169/2/2 173/2/2
f 171/2/2 172/2/2 175/2/2
f 175/2/2 172/2/2 176/2/2
f 174/2/2 175/2/2 178/2/2
f 178/2/2 175/2/2 179/2/2
f 177/2/2 178/2/2 181/2/2
f 181/2/2 178/2/2 182/2/2
f 180/2/2 181/2/2 184/2/2
f 184/2/2 181/2/2 185/2/2
f 183/2/2 184/2/2 187/2/2
f 187/2/2 184/2/2 188/2/2
f 186/2/2 187/2/2 190/2/2
f 190/2/2 187/2/2 191/2/2
f 189/2/2 190/2/2 193/2/2
f 193/2/2 190/2/2 194/2/2
f 192/2/2 193/2/2 195/2/2
f 195/2/2 193/2/2 196/2/2
f 197/1/2 198/1/2 200/1/2
f 200/1/2 198/1/2 201/1/2
f 199/1/2 200/1/2 203/1/2
f 200/2/2 201/2/2 204/2/2
f 203/1/2 200/1/2 204/1/2
f 202/1/2 203/1/2 206/1/2
f 203/2/2 204/2/2 207/2/2
f 206/1/2 203/1/2 207/1/2
f 205/1/2 206/1/2 209/1/2
f 206/2/2 207/2/2 210/2/2
f 209/1/2 206/1/2 210/1/2
f 208/1/2 209/1/2 212/1/2
f 209/2/2 210/2/2 213/2/2
f 212/1/2 209/1/2 213/1/2
f 211/1/2 212/1/2 215/1/2
f 212/2/2 213/2/2 216/2/2
f 215/1/2 212/1/2 216/1/2
f 214/1/2 215/1/2 218/1/2
f 215/2/2 216/2/2 219/2/2
f 218/1/2 215/1/2 219/1/2
f 217/1/2 218/1/2 221/1/2
f 218/2/2 219/2/2 222/2/2
f 221/1/2 218/1/2 222/1/2
f 220/1/2 221/1/2 224/1/2
f 221/2/2 222/2/2 225/2/2
f 224/1/2 221/1/2 225/1/2
f 223/1/2 224/1/2 227/1/2
f 224/2/2 225/2/2 228/2/2
f 227/1/2 224/1/2 228/1/2
f 226/1/2 227/1/2 230/1/2
f 227/2/2 228/2/2 231/2/2
f 230/1/2 227/1/2 231/1/2
f 229/1/2 230/1/2 233/1/2
f 230/2/2 231/2/2 234/2/2
f 233/1/2 230/1/2 234/1/2
f 232/1/2 233/1/2 236/1/2
f 233/2/2 234/2/2 237/2/2
f 236/1/2 233/1/2 237/1/2
f 235/1/2 236/1/2 239/1/2
f 236/2/2 237/2/2 240/2/2
f 239/1/2 236/1/2 240/1/2
f 238/1/2 239/1/2 242/1/2
f 239/2/2 240/2/2 243/2/2
f 242/1/2 239/1/2 243/1/2
f 241/1/2 242/1/2 245/1/2
f 242/2/2 243/2/2 246/2/2
f 245/1/2 242/1/2 246/1/2
f 244/1/2 245/1/2 248/1/2
f 245/2/2 246/2/2 249/2/2
f 248/1/2 245/1/2 249/1/2
f 247/1/2 248/1/2 251/1/2
f 248/2/2 249/2/2 252/2/2
f 251/1/2 248/1/2 252/1/2
f 250/1/2 251/1/2 254/1/2
f 251/2/2 252/2/2 255/2/2
f 254/1/2 251/1/2 255/1/2
f 253/1/2 254/1/2 257/1/2
f 254/2/2 255/2/2 258/2/2
f 257/1/2 254/1/2 258/1/2
f 256/1/2 257/1/2 260/1/2
f 257/2/2 258/2/2 261/2/2
f 260/1/2 257/1/2 261/1/2
f 259/1/2 260/1/2 262/1/2
f 260/2/2 261/2/2 263/2/2
f 262/1/2 260/1/2 263/1/2
f 204/2/2 201/2/2 264/2/2
f 263/2/2 261/2/2 264/2/2
f 207/2/2 204/2/2 264/2/2
f 210/2/2 207/2/2 264/2/2
f 213/2/2 210/2/2 264/2/2
f 261/2/2 258/2/2 264/2/2
f 216/2/2 213/2/2 264/2/2
f 258/2/2 255/2/2 264/2/2
f 219/2/2 216/2/2 264/2/2
f 255/2/2 252/2/2 264/2/2
f 222/2/2 219/2/2 264/2/2
f 252/2/2 249/2/2 264/2/2
f 225/2/2 222/2/2 264/2/2
f 249/2/2 246/2/2 264/2/2
f 228/2/2 225/2/2 264/2/2
f 246/2/2 243/2/2 264/2/2
f 231/2/2 228/2/2 264/2/2
f 243/2/2 240/2/2 264/2/2
f 234/2/2 231/2/2 264/2/2
f 240/2/2 237/2/2 264/2/2
f 237/2/2 234/2/2 264/2/2
f 268/1/3 266/1/3 265/1/3
f 269/2/3 268/2/3 267/2/3
f 270/1/3 266/1/3 268/1/3
f 270/2/3 268/2/3 269/2/3
f 271/1/3 266/1/3 270/1/3
f 272/1/3 266/1/3 271/1/3
f 276/1/3 274/1/3 273/1/3
f 277/1/3 274/1/3 276/1/3
f 278/2/3 276/2/3 275/2/3
f 279/2/3 276/2/3 278/2/3
f 281/1/3 280/1/3 279/1/3
f 282/1/3 280/1/3 281/1/3
f 286/1/3 284/1/3 283/1/3
f 287/1/3 284/1/3 286/1/3
f 288/2/3 286/2/3 285/2/3
f 289/2/3 286/2/3 288/2/3
f 291/1/3 290/1/3 289/1/3
f 292/1/3 290/1/3 291/1/3
f 296/1/3 294/1/3 293/1/3
f 297/1/3 294/1/3 296/1/3
f 298/2/3 296/2/3 295/2/3
f 299/2/3 296/2/3 298/2/3
f 301/1/3 300/1/3 299/1/3
f 302/1/3 300/1/3 301/1/3
f 306/1/3 304/1/3 303/1/3
f 307/1/3 304/1/3 306/1/3
f 308/2/3 306/2/3 305/2/3
f 309/2/3 306/2/3 308/2/3
f 311/1/3 310/1/3 309/1/3
f 312/1/3 310/1/3 311/1/3
f 316/1/3 314/1/3 313/1/3
f 317/1/3 314/1/3 316/1/3
f 318/2/3 316/2/3 315/2/3
f 319/2/3 316/2/3 318/2/3
f 321/1/3 320/1/3 319/1/3
f 322/1/3 320/1/3 321/1/3
f 326/1/3 324/1/3 323/1/3
f 327/1/3 324/1/3 326/1/3
f 328/2/3 326/2/3 325/2/3
f 329/2/3 326/2/3 328/2/3
f 331/1/3 330/1/3 329/1/3
f 332/1/3 330/1/3 331/1/3
f 336/1/3 334/1/3 333/1/3
f 337/1/3 334/1/3 336/1/3
f 338/2/3 336/2/3 335/2/3
f 339/2/3 336/2/3 338/2/3
f 341/1/3 340/1/3 339/1/3
f 342/1/3 340/1/3 341/1/3
f 346/1/3 344/1/3 343/1/3
f 347/1/3 344/1/3 346/1/3
f 348/2/3 346/2/3 345/2/3
f 349/2/3 346/2/3 348/2/3
f 351/1/3 350/1/3 349/1/3
f 352/1/3 350/1/3 351/1/3
f 356/1/3 354/1/3 353/1/3
f 357/1/3 354/1/3 356/1/3
f 358/2/3 356/2/3 355/2/3
f 359/2/3 356/2/3 358/2/3
f 361/1/3 360/1/3 359/1/3
f 362/1/3 360/1/3 361/1/3
f 366/1/3 364/1/3 363/1/3
f 367/1/3 364/1/3 366/1/3
f 368/2/3 366/2/3 365/2/3
f 369/2/3 366/2/3 368/2/3
f 371/1/3 370/1/3 369/1/3
f 372/1/3 370/1/3 371/1/3
f 376/1/3 374/1/3 373/1/3
f 377/1/3 374/1/3 376/1/3
f 378/2/3 376/2/3 375/2/3
f 379/2/3 376/2/3 378/2/3
f 381/1/3 380/1/3 379/1/3
f 382/1/3 380/1/3 381/1/3
f 386/1/3 384/1/3 383/1/3
f 387/1/3 384/1/3 386/1/3
f 388/2/3 386/2/3 385/2/3
f 389/2/3 386/2/3 388/2/3
f 391/1/3 390/1/3 389/1/3
f 392/1/3 390/1/3 391/1/3
f 396/1/3 394/1/3 393/1/3
f 397/1/3 394/1/3 396/1/3
f 398/2/3 396/2/3 395/2/3
f 399/2/3 396/2/3 398/2/3
f 401/1/3 400/1/3 399/1/3
f 402/1/3 400/1/3 401/1/3
f 406/1/3 404/1/3 403/1/3
f 407/1/3 404/1/3 406/1/3
f 408/2/3 406/2/3 405/2/3
f 409/2/3 406/2/3 408/2/3
f 411/1/3 410/1/3 409/1/3
f 412/1/3 410/1/3 411/1/3
f 416/1/3 414/1/3 413/1/3
f 417/1/3 414/1/3 416/1/3
f 418/2/3 416/2/3 415/2/3
f 419/2/3 416/2/3 418/2/3
f 421/1/3 420/1/3 419/1/3
f 422/1/3 420/1/3 421/1/3
f 426/1/3 424/1/3 423/1/3
f 427/1/3 424/1/3 426/1/3
f 428/2/3 426/2/3 425/2/3
f 429/2/3 426/2/3 428/2/3
f 431/1/3 430/1/3 429/1/3
f 432/1/3 430/1/3 431/1/3
f 436/1/3 434/1/3 433/1/3
f 437/1/3 434/1/3 436/1/3
f 438/2/3 436/2/3 435/2/3
f 439/2/3 436/2/3 438/2/3
f 441/1/3 440/1/3 439/1/3
f 442/1/3 440/1/3 441/1/3
f 446/1/3 444/1/3 443/1/3
f 447/1/3 444/1/3 446/1/3
f 448/2/3 446/2/3 445/2/3
f 449/2/3 446/2/3 448/2/3
f 451/1/3 450/1/3 449/1/3
f 452/1/3 450/1/3 451/1/3
f 456/1/3 454/1/3 453/1/3
f 457/1/3 454/1/3 456/1/3
f 458/2/3 456/2/3 455/2/3
f 459/2/3 456/2/3 458/2/3
f 461/1/3 460/1/3 459/1/3
f 462/1/3 460/1/3 461/1/3
f 466/1/3 464/1/3 463/1/3
f 467/1/3 464/1/3 466/1/3
f 468/2/3 466/2/3 465/2/3
f 469/2/3 466/2/3 468/2/3
f 471/1/3 470/1/3 469/1/3
f 472/1/3 470/1/3 471/1/3
f 475/1/3 474/1/3 473/1/3
f 476/1/3 474/1/3 475/1/3
f 479/1/3 478/1/3 477/1/3
f 480/1/3 478/1/3 479/1/3
f 481/1/4 482/1/4 484/1/4
f 482/2/4 483/2/4 485/2/4
f 484/1/4 482/1/4 485/1/4
f 485/2/4 483/2/4 486/2/4
f 490/2/5 488/2/5 487/2/5
f 491/2/5 488/2/5 490/2/5
f 493/1/5 490/1/5 489/1/5
f 493/1/5 492/1/5 491/1/5
f 493/1/5 491/1/5 490/1/5
f 494/1/5 492/1/5 493/1/5
f 498/2/5 496/2/5 495/2/5
f 499/2/5 496/2/5 498/2/5
f 501/1/5 498/1/5 497/1/5
f 502/1/5 498/1/5 501/1/5
f 503/1/5 500/1/5 499/1/5
f 504/1/5 500/1/5 503/1/5
f 508/2/5 506/2/5 505/2/5
f 509/2/5 506/2/5 508/2/5
f 511/1/5 508/1/5 507/1/5
f 512/1/5 508/1/5 511/1/5
f 513/1/5 510/1/5 509/1/5
f 514/1/5 510/1/5 513/1/5
f 518/2/5 516/2/5 515/2/5
f 519/2/5 516/2/5 518/2/5
f 521/1/5 518/1/5 517/1/5
f 522/1/5 518/1/5 521/1/5
f 523/1/5 520/1/5 519/1/5
f 524/1/5 520/1/5 523/1/5
f 528/2/5 526/2/5 525/2/5
f 529/2/5 526/2/5 528/2/5
f 531/1/5 528/1/5 527/1/5
f 532/1/5 528/1/5 531/1/5
f 533/1/5 530/1/5 529/1/5
f 534/1/5 530/1/5 533/1/5
f 538/2/5 536/2/5 535/2/5
f 539/2/5 536/2/5 538/2/5
f 541/1/5 538/1/5 537/1/5
f 542/1/5 538/1/5 541/1/5
f 543/1/5 540/1/5 539/1/5
f 544/1/5 540/1/5 543/1/5
f 548/2/5 546/2/5 545/2/5
f 549/2/5 546/2/5 548/2/5
f 551/1/5 548/1/5 547/1/5
f 552/1/5 548/1/5 551/1/5
f 553/1/5 550/1/5 549/1/5
f 554/1/5 550/1/5 553/1/5
f 558/2/5 556/2/5 555/2/5
f 559/2/5 556/2/5 558/2/5
f 561/1/5 558/1/5 557/1/5
f 562/1/5 558/1/5 561/1/5
f 563/1/5 560/1/5 559/1/5
f 564/1/5 560/1/5 563/1/5
f 568/2/5 566/2/5 565/2/5
f 569/2/5 566/2/5 568/2/5
f 571/1/5 568/1/5 567/1/5
f 572/1/5 568/1/5 571/1/5
f 573/1/5 570/1/5 569/1/5
f 574/1/5 570/1/5 573/1/5
f 578/2/5 576/2/5 575/2/5
f 579/2/5 576/2/5 578/2/5
f 581/1/5 578/1/5 577/1/5
f 582/1/5 578/1/5 581/1/5
f 583/1/5 580/1/5 579/1/5
f 584/1/5 580/1/5 583/1/5
f 588/2/5 586/2/5 585/2/5
f 589/2/5 586/2/5 588/2/5
f 591/1/5 588/1/5 587/1/5
f 592/1/5 588/1/5 591/1/5
f 593/1/5 590/1/5 589/1/5
f 594/1/5 590/1/5 593/1/5
f 598/2/5 596/2/5 595/2/5
f 599/2/5 596/2/5 598/2/5
f 601/1/5 598/1/5 597/1/5
f 602/1/5 598/1/5 601/1/5
f 603/1/5 600/1/5 599/1/5
f 604/1/5 600/1/5 603/1/5
f 608/2/5 606/2/5 605/2/5
f 609/2/5 606/2/5 608/2/5
f 611/1/5 608/1/5 607/1/5
f 612/1/5 608/1/5 611/1/5
f 613/1/5 610/1/5 609/1/5
f 614/1/5 610/1/5 613/1/5
f 618/2/5 616/2/5 615/2/5
f 619/2/5 616/2/5 618/2/5
f 621/1/5 618/1/5 617/1/5
f 622/1/5 618/1/5 621/1/5
f 623/1/5 620/1/5 619/1/5
f 624/1/5 620/1/5 623/1/5
f 628/2/5 626/2/5 625/2/5
f 629/2/5 626/2/5 628/2/5
f 631/1/5 628/1/5 627/1/5
f 632/1/5 628/1/5 631/1/5
f 633/1/5 630/1/5 629/1/5
f 634/1/5 630/1/5 633/1/5
f 638/2/5 636/2/5 635/2/5
f 639/2/5 636/2/5 638/2/5
f 641/1/5 638/1/5 637/1/5
f 642/1/5 638/1/5 641/1/5
f 643/1/5 640/1/5 639/1/5
f 644/1/5 640/1/5 643/1/5
f 648/2/5 646/2/5 645/2/5
f 649/2/5 646/2/5 648/2/5
f 651/1/5 648/1/5 647/1/5
f 652/1/5 648/1/5 651/1/5
f 653/1/5 650/1/5 649/1/5
f 654/1/5 650/1/5 653/1/5
f 658/2/5 656/2/5 655/2/5
f 659/2/5 656/2/5 658/2/5
f 661/1/5 658/1/5 657/1/5
f 662/1/5 658/1/5 661/1/5
f 663/1/5 660/1/5 659/1/5
f 664/1/5 660/1/5 663/1/5
f 668/2/5 666/2/5 665/2/5
f 669/2/5 666/2/5 668/2/5
f 671/1/5 668/1/5 667/1/5
f 672/1/5 668/1/5 671/1/5
f 673/1/5 670/1/5 669/1/5
f 674/1/5 670/1/5 673/1/5
f 678/2/5 676/2/5 675/2/5
f 679/2/5 676/2/5 678/2/5
f 681/1/5 678/1/5 677/1/5
f 682/1/5 678/1/5 681/1/5
f 683/1/5 680/1/5 679/1/5
f 684/1/5 680/1/5 683/1/5
f 688/2/5 686/2/5 685/2/5
f 689/2/5 686/2/5 688/2/5
f 691/1/5 688/1/5 687/1/5
f 692/1/5 688/1/5 691/1/5
f 693/1/5 690/1/5 689/1/5
f 694/1/5 690/1/5 693/1/5
f 699/1/5 696/1/5 695/1/5
f 700/1/5 696/1/5 699/1/5
f 701/1/5 698/1/5 697/1/5
f 702/1/5 698/1/5 701/1/5
f 703/1/6 704/1/6 705/1/6
f 705/1/6 704/1/6 706/1/6
f 705/2/6 706/2/6 707/2/6
f 707/2/6 706/2/6 708/2/6
