# MagicaVoxel @ Ephtracy

# group
o 

# material
mtllib Concrete_Tile_Chunk.mtl
usemtl palette

# normals
vn -1 0 0
vn 1 0 0
vn 0 0 1
vn 0 0 -1
vn 0 -1 0
vn 0 1 0

# texcoords
vt 0.970703 0.5
vt 0.974609 0.5
vt 0.978516 0.5

# verts
v -9.9 0 9.9
v -9.9 0 -9.9
v -9.9 0.9 9.9
v -9.9 0.9 -9.9
v -9.8 0.9 9.8
v -9.8 0.9 3.4
v -9.8 0.9 3.2
v -9.8 0.9 -3.2
v -9.8 0.9 -3.4
v -9.8 0.9 -9.8
v -9.8 1 9.8
v -9.8 1 3.4
v -9.8 1 3.2
v -9.8 1 -3.2
v -9.8 1 -3.4
v -9.8 1 -9.8
v -3.2 0.9 9.8
v -3.2 0.9 3.4
v -3.2 0.9 3.2
v -3.2 0.9 -3.2
v -3.2 0.9 -3.4
v -3.2 0.9 -9.8
v -3.2 1 9.8
v -3.2 1 3.4
v -3.2 1 3.2
v -3.2 1 -3.2
v -3.2 1 -3.4
v -3.2 1 -9.8
v 3.4 0.9 9.8
v 3.4 0.9 3.4
v 3.4 0.9 3.2
v 3.4 0.9 -3.2
v 3.4 0.9 -3.4
v 3.4 0.9 -9.8
v 3.4 1 9.8
v 3.4 1 3.4
v 3.4 1 3.2
v 3.4 1 -3.2
v 3.4 1 -3.4
v 3.4 1 -9.8
v -3.4 0.9 9.8
v -3.4 0.9 3.4
v -3.4 0.9 3.2
v -3.4 0.9 -3.2
v -3.4 0.9 -3.4
v -3.4 0.9 -9.8
v -3.4 1 9.8
v -3.4 1 3.4
v -3.4 1 3.2
v -3.4 1 -3.2
v -3.4 1 -3.4
v -3.4 1 -9.8
v 3.2 0.9 9.8
v 3.2 0.9 3.4
v 3.2 0.9 3.2
v 3.2 0.9 -3.2
v 3.2 0.9 -3.4
v 3.2 0.9 -9.8
v 3.2 1 9.8
v 3.2 1 3.4
v 3.2 1 3.2
v 3.2 1 -3.2
v 3.2 1 -3.4
v 3.2 1 -9.8
v 9.8 0.9 9.8
v 9.8 0.9 3.4
v 9.8 0.9 3.2
v 9.8 0.9 -3.2
v 9.8 0.9 -3.4
v 9.8 0.9 -9.8
v 9.8 1 9.8
v 9.8 1 3.4
v 9.8 1 3.2
v 9.8 1 -3.2
v 9.8 1 -3.4
v 9.8 1 -9.8
v 9.9 0 9.9
v 9.9 0 -9.9
v 9.9 0.9 9.9
v 9.9 0.9 -9.9
v -9.9 0 9.9
v -9.9 0.9 9.9
v 9.9 0 9.9
v 9.9 0.9 9.9
v -9.8 0.9 9.8
v -9.8 1 9.8
v -3.4 0.9 9.8
v -3.4 1 9.8
v -3.2 0.9 9.8
v -3.2 1 9.8
v 3.2 0.9 9.8
v 3.2 1 9.8
v 3.4 0.9 9.8
v 3.4 1 9.8
v 9.8 0.9 9.8
v 9.8 1 9.8
v -9.8 0.9 3.2
v -9.8 1 3.2
v -3.4 0.9 3.2
v -3.4 1 3.2
v -3.2 0.9 3.2
v -3.2 1 3.2
v 3.2 0.9 3.2
v 3.2 1 3.2
v 3.4 0.9 3.2
v 3.4 1 3.2
v 9.8 0.9 3.2
v 9.8 1 3.2
v -9.8 0.9 -3.4
v -9.8 1 -3.4
v -3.4 0.9 -3.4
v -3.4 1 -3.4
v -3.2 0.9 -3.4
v -3.2 1 -3.4
v 3.2 0.9 -3.4
v 3.2 1 -3.4
v 3.4 0.9 -3.4
v 3.4 1 -3.4
v 9.8 0.9 -3.4
v 9.8 1 -3.4
v -9.8 0.9 3.4
v -9.8 1 3.4
v -3.4 0.9 3.4
v -3.4 1 3.4
v -3.2 0.9 3.4
v -3.2 1 3.4
v 3.2 0.9 3.4
v 3.2 1 3.4
v 3.4 0.9 3.4
v 3.4 1 3.4
v 9.8 0.9 3.4
v 9.8 1 3.4
v -9.8 0.9 -3.2
v -9.8 1 -3.2
v -3.4 0.9 -3.2
v -3.4 1 -3.2
v -3.2 0.9 -3.2
v -3.2 1 -3.2
v 3.2 0.9 -3.2
v 3.2 1 -3.2
v 3.4 0.9 -3.2
v 3.4 1 -3.2
v 9.8 0.9 -3.2
v 9.8 1 -3.2
v -9.8 0.9 -9.8
v -9.8 1 -9.8
v -3.4 0.9 -9.8
v -3.4 1 -9.8
v -3.2 0.9 -9.8
v -3.2 1 -9.8
v 3.2 0.9 -9.8
v 3.2 1 -9.8
v 3.4 0.9 -9.8
v 3.4 1 -9.8
v 9.8 0.9 -9.8
v 9.8 1 -9.8
v -9.9 0 -9.9
v -9.9 0.9 -9.9
v 9.9 0 -9.9
v 9.9 0.9 -9.9
v -9.9 0 9.9
v 9.9 0 9.9
v -9.9 0 -9.9
v 9.9 0 -9.9
v -9.9 0.9 9.9
v 9.9 0.9 9.9
v -9.8 0.9 9.8
v -3.4 0.9 9.8
v -3.2 0.9 9.8
v 3.2 0.9 9.8
v 3.4 0.9 9.8
v 9.8 0.9 9.8
v -9.8 0.9 3.4
v -3.4 0.9 3.4
v -3.2 0.9 3.4
v 3.2 0.9 3.4
v 3.4 0.9 3.4
v 9.8 0.9 3.4
v -9.8 0.9 3.2
v -3.4 0.9 3.2
v -3.2 0.9 3.2
v 3.2 0.9 3.2
v 3.4 0.9 3.2
v 9.8 0.9 3.2
v -9.8 0.9 -3.2
v -3.4 0.9 -3.2
v -3.2 0.9 -3.2
v 3.2 0.9 -3.2
v 3.4 0.9 -3.2
v 9.8 0.9 -3.2
v -9.8 0.9 -3.4
v -3.4 0.9 -3.4
v -3.2 0.9 -3.4
v 3.2 0.9 -3.4
v 3.4 0.9 -3.4
v 9.8 0.9 -3.4
v -9.8 0.9 -9.8
v -3.4 0.9 -9.8
v -3.2 0.9 -9.8
v 3.2 0.9 -9.8
v 3.4 0.9 -9.8
v 9.8 0.9 -9.8
v -9.9 0.9 -9.9
v 9.9 0.9 -9.9
v -9.8 1 9.8
v -3.4 1 9.8
v -3.2 1 9.8
v 3.2 1 9.8
v 3.4 1 9.8
v 9.8 1 9.8
v -9.7 1 9.7
v -3.5 1 9.7
v -3.1 1 9.7
v 3.1 1 9.7
v 3.5 1 9.7
v 9.7 1 9.7
v -9.7 1 3.5
v -3.5 1 3.5
v -3.1 1 3.5
v 3.1 1 3.5
v 3.5 1 3.5
v 9.7 1 3.5
v -9.8 1 3.4
v -3.4 1 3.4
v -3.2 1 3.4
v 3.2 1 3.4
v 3.4 1 3.4
v 9.8 1 3.4
v -9.8 1 3.2
v -3.4 1 3.2
v -3.2 1 3.2
v 3.2 1 3.2
v 3.4 1 3.2
v 9.8 1 3.2
v -9.7 1 3.1
v -3.5 1 3.1
v -3.1 1 3.1
v 3.1 1 3.1
v 3.5 1 3.1
v 9.7 1 3.1
v -9.7 1 -3.1
v -3.5 1 -3.1
v -3.1 1 -3.1
v 3.1 1 -3.1
v 3.5 1 -3.1
v 9.7 1 -3.1
v -9.8 1 -3.2
v -3.4 1 -3.2
v -3.2 1 -3.2
v 3.2 1 -3.2
v 3.4 1 -3.2
v 9.8 1 -3.2
v -9.8 1 -3.4
v -3.4 1 -3.4
v -3.2 1 -3.4
v 3.2 1 -3.4
v 3.4 1 -3.4
v 9.8 1 -3.4
v -9.7 1 -3.5
v -3.5 1 -3.5
v -3.1 1 -3.5
v 3.1 1 -3.5
v 3.5 1 -3.5
v 9.7 1 -3.5
v -9.7 1 -9.7
v -3.5 1 -9.7
v -3.1 1 -9.7
v 3.1 1 -9.7
v 3.5 1 -9.7
v 9.7 1 -9.7
v -9.8 1 -9.8
v -3.4 1 -9.8
v -3.2 1 -9.8
v 3.2 1 -9.8
v 3.4 1 -9.8
v 9.8 1 -9.8

# faces
f 3/2/1 2/2/1 1/2/1
f 4/2/1 2/2/1 3/2/1
f 11/3/1 6/3/1 5/3/1
f 12/3/1 6/3/1 11/3/1
f 13/3/1 8/3/1 7/3/1
f 14/3/1 8/3/1 13/3/1
f 15/3/1 10/3/1 9/3/1
f 16/3/1 10/3/1 15/3/1
f 23/3/1 18/3/1 17/3/1
f 24/3/1 18/3/1 23/3/1
f 25/3/1 20/3/1 19/3/1
f 26/3/1 20/3/1 25/3/1
f 27/3/1 22/3/1 21/3/1
f 28/3/1 22/3/1 27/3/1
f 35/3/1 30/3/1 29/3/1
f 36/3/1 30/3/1 35/3/1
f 37/3/1 32/3/1 31/3/1
f 38/3/1 32/3/1 37/3/1
f 39/3/1 34/3/1 33/3/1
f 40/3/1 34/3/1 39/3/1
f 41/3/2 42/3/2 47/3/2
f 47/3/2 42/3/2 48/3/2
f 43/3/2 44/3/2 49/3/2
f 49/3/2 44/3/2 50/3/2
f 45/3/2 46/3/2 51/3/2
f 51/3/2 46/3/2 52/3/2
f 53/3/2 54/3/2 59/3/2
f 59/3/2 54/3/2 60/3/2
f 55/3/2 56/3/2 61/3/2
f 61/3/2 56/3/2 62/3/2
f 57/3/2 58/3/2 63/3/2
f 63/3/2 58/3/2 64/3/2
f 65/3/2 66/3/2 71/3/2
f 71/3/2 66/3/2 72/3/2
f 67/3/2 68/3/2 73/3/2
f 73/3/2 68/3/2 74/3/2
f 69/3/2 70/3/2 75/3/2
f 75/3/2 70/3/2 76/3/2
f 77/2/2 78/2/2 79/2/2
f 79/2/2 78/2/2 80/2/2
f 83/2/3 82/2/3 81/2/3
f 84/2/3 82/2/3 83/2/3
f 87/3/3 86/3/3 85/3/3
f 88/3/3 86/3/3 87/3/3
f 91/3/3 90/3/3 89/3/3
f 92/3/3 90/3/3 91/3/3
f 95/3/3 94/3/3 93/3/3
f 96/3/3 94/3/3 95/3/3
f 99/3/3 98/3/3 97/3/3
f 100/3/3 98/3/3 99/3/3
f 103/3/3 102/3/3 101/3/3
f 104/3/3 102/3/3 103/3/3
f 107/3/3 106/3/3 105/3/3
f 108/3/3 106/3/3 107/3/3
f 111/3/3 110/3/3 109/3/3
f 112/3/3 110/3/3 111/3/3
f 115/3/3 114/3/3 113/3/3
f 116/3/3 114/3/3 115/3/3
f 119/3/3 118/3/3 117/3/3
f 120/3/3 118/3/3 119/3/3
f 121/3/4 122/3/4 123/3/4
f 123/3/4 122/3/4 124/3/4
f 125/3/4 126/3/4 127/3/4
f 127/3/4 126/3/4 128/3/4
f 129/3/4 130/3/4 131/3/4
f 131/3/4 130/3/4 132/3/4
f 133/3/4 134/3/4 135/3/4
f 135/3/4 134/3/4 136/3/4
f 137/3/4 138/3/4 139/3/4
f 139/3/4 138/3/4 140/3/4
f 141/3/4 142/3/4 143/3/4
f 143/3/4 142/3/4 144/3/4
f 145/3/4 146/3/4 147/3/4
f 147/3/4 146/3/4 148/3/4
f 149/3/4 150/3/4 151/3/4
f 151/3/4 150/3/4 152/3/4
f 153/3/4 154/3/4 155/3/4
f 155/3/4 154/3/4 156/3/4
f 157/2/4 158/2/4 159/2/4
f 159/2/4 158/2/4 160/2/4
f 163/2/5 162/2/5 161/2/5
f 164/2/5 162/2/5 163/2/5
f 165/2/6 166/2/6 167/2/6
f 167/2/6 166/2/6 168/2/6
f 168/2/6 166/2/6 169/2/6
f 169/2/6 166/2/6 170/2/6
f 170/2/6 166/2/6 171/2/6
f 171/2/6 166/2/6 172/2/6
f 165/2/6 167/2/6 173/2/6
f 168/2/6 169/2/6 174/2/6
f 174/2/6 169/2/6 175/2/6
f 170/2/6 171/2/6 176/2/6
f 176/2/6 171/2/6 177/2/6
f 172/2/6 166/2/6 178/2/6
f 176/2/6 177/2/6 179/2/6
f 177/2/6 178/2/6 179/2/6
f 174/2/6 175/2/6 179/2/6
f 165/2/6 173/2/6 179/2/6
f 175/2/6 176/2/6 179/2/6
f 173/2/6 174/2/6 179/2/6
f 179/2/6 178/2/6 180/2/6
f 180/2/6 178/2/6 181/2/6
f 181/2/6 178/2/6 182/2/6
f 182/2/6 178/2/6 183/2/6
f 178/2/6 166/2/6 184/2/6
f 183/2/6 178/2/6 184/2/6
f 165/2/6 179/2/6 185/2/6
f 180/2/6 181/2/6 186/2/6
f 186/2/6 181/2/6 187/2/6
f 182/2/6 183/2/6 188/2/6
f 188/2/6 183/2/6 189/2/6
f 184/2/6 166/2/6 190/2/6
f 186/2/6 187/2/6 191/2/6
f 189/2/6 190/2/6 191/2/6
f 188/2/6 189/2/6 191/2/6
f 165/2/6 185/2/6 191/2/6
f 187/2/6 188/2/6 191/2/6
f 185/2/6 186/2/6 191/2/6
f 191/2/6 190/2/6 192/2/6
f 192/2/6 190/2/6 193/2/6
f 193/2/6 190/2/6 194/2/6
f 194/2/6 190/2/6 195/2/6
f 190/2/6 166/2/6 196/2/6
f 195/2/6 190/2/6 196/2/6
f 165/2/6 191/2/6 197/2/6
f 192/2/6 193/2/6 198/2/6
f 198/2/6 193/2/6 199/2/6
f 194/2/6 195/2/6 200/2/6
f 200/2/6 195/2/6 201/2/6
f 196/2/6 166/2/6 202/2/6
f 198/2/6 199/2/6 203/2/6
f 201/2/6 202/2/6 203/2/6
f 200/2/6 201/2/6 203/2/6
f 165/2/6 197/2/6 203/2/6
f 199/2/6 200/2/6 203/2/6
f 197/2/6 198/2/6 203/2/6
f 202/2/6 166/2/6 204/2/6
f 203/2/6 202/2/6 204/2/6
f 205/3/6 206/3/6 211/3/6
f 211/3/6 206/3/6 212/3/6
f 207/3/6 208/3/6 213/3/6
f 213/3/6 208/3/6 214/3/6
f 209/3/6 210/3/6 215/3/6
f 215/3/6 210/3/6 216/3/6
f 205/3/6 211/3/6 217/3/6
f 211/1/6 212/1/6 217/1/6
f 212/3/6 206/3/6 218/3/6
f 217/1/6 212/1/6 218/1/6
f 207/3/6 213/3/6 219/3/6
f 213/1/6 214/1/6 219/1/6
f 214/3/6 208/3/6 220/3/6
f 219/1/6 214/1/6 220/1/6
f 215/1/6 216/1/6 221/1/6
f 209/3/6 215/3/6 221/3/6
f 216/3/6 210/3/6 222/3/6
f 221/1/6 216/1/6 222/1/6
f 205/3/6 217/3/6 223/3/6
f 217/3/6 218/3/6 223/3/6
f 218/3/6 206/3/6 224/3/6
f 223/3/6 218/3/6 224/3/6
f 207/3/6 219/3/6 225/3/6
f 219/3/6 220/3/6 225/3/6
f 220/3/6 208/3/6 226/3/6
f 225/3/6 220/3/6 226/3/6
f 209/3/6 221/3/6 227/3/6
f 221/3/6 222/3/6 227/3/6
f 222/3/6 210/3/6 228/3/6
f 227/3/6 222/3/6 228/3/6
f 229/3/6 230/3/6 235/3/6
f 235/3/6 230/3/6 236/3/6
f 231/3/6 232/3/6 237/3/6
f 237/3/6 232/3/6 238/3/6
f 233/3/6 234/3/6 239/3/6
f 239/3/6 234/3/6 240/3/6
f 229/3/6 235/3/6 241/3/6
f 235/1/6 236/1/6 241/1/6
f 236/3/6 230/3/6 242/3/6
f 241/1/6 236/1/6 242/1/6
f 231/3/6 237/3/6 243/3/6
f 237/1/6 238/1/6 243/1/6
f 238/3/6 232/3/6 244/3/6
f 243/1/6 238/1/6 244/1/6
f 239/1/6 240/1/6 245/1/6
f 233/3/6 239/3/6 245/3/6
f 240/3/6 234/3/6 246/3/6
f 245/1/6 240/1/6 246/1/6
f 229/3/6 241/3/6 247/3/6
f 241/3/6 242/3/6 247/3/6
f 242/3/6 230/3/6 248/3/6
f 247/3/6 242/3/6 248/3/6
f 231/3/6 243/3/6 249/3/6
f 243/3/6 244/3/6 249/3/6
f 244/3/6 232/3/6 250/3/6
f 249/3/6 244/3/6 250/3/6
f 233/3/6 245/3/6 251/3/6
f 245/3/6 246/3/6 251/3/6
f 246/3/6 234/3/6 252/3/6
f 251/3/6 246/3/6 252/3/6
f 253/3/6 254/3/6 259/3/6
f 259/3/6 254/3/6 260/3/6
f 255/3/6 256/3/6 261/3/6
f 261/3/6 256/3/6 262/3/6
f 257/3/6 258/3/6 263/3/6
f 263/3/6 258/3/6 264/3/6
f 253/3/6 259/3/6 265/3/6
f 259/1/6 260/1/6 265/1/6
f 260/3/6 254/3/6 266/3/6
f 265/1/6 260/1/6 266/1/6
f 255/3/6 261/3/6 267/3/6
f 261/1/6 262/1/6 267/1/6
f 262/3/6 256/3/6 268/3/6
f 267/1/6 262/1/6 268/1/6
f 263/1/6 264/1/6 269/1/6
f 257/3/6 263/3/6 269/3/6
f 264/3/6 258/3/6 270/3/6
f 269/1/6 264/1/6 270/1/6
f 253/3/6 265/3/6 271/3/6
f 265/3/6 266/3/6 271/3/6
f 266/3/6 254/3/6 272/3/6
f 271/3/6 266/3/6 272/3/6
f 255/3/6 267/3/6 273/3/6
f 267/3/6 268/3/6 273/3/6
f 268/3/6 256/3/6 274/3/6
f 273/3/6 268/3/6 274/3/6
f 257/3/6 269/3/6 275/3/6
f 269/3/6 270/3/6 275/3/6
f 270/3/6 258/3/6 276/3/6
f 275/3/6 270/3/6 276/3/6
